# xmcd CD database generated by RipIT
#
# Track frame offsets:
# 150
# 18355
# 35048
# 50442
# 66155
# 83192
# 103153
# 121005
# 133282
# 154061
# 176794
# 192013
#
# Disc length: 2817 seconds
#
# Revision: 0
# Processed by: cddbd v1.5.2PL0 Copyright (c) Steve Scherf et al.
# Submitted via: RipIT 4.0.0-beta20140508 www.suwald.com/ripit/ripit.html on 2018-04-06 at 19:55
#
DISCID=a30aff0c
DTITLE=Steep Canyon Rangers - Out in the open
DYEAR=2018
DGENRE=Bluegrass
TTITLE0=Farmers and pharaohs
TTITLE1=Let me out of this towm
TTITLE2=Out in the open
TTITLE3=Can't get home
TTITLE4=Going midwest
TTITLE5=When she was mine
TTITLE6=Love harder
TTITLE7=Shenandoah valley
TTITLE8=Best of me
TTITLE9=Roadside anthems
TTITLE10=Let me die in my footsteps
TTITLE11=The speed we're traveling
EXTD=
EXTT0=
EXTT1=
EXTT2=
EXTT3=
EXTT4=
EXTT5=
EXTT6=
EXTT7=
EXTT8=
EXTT9=
EXTT10=
EXTT11=
PLAYORDER=
